<?xml version="1.0" encoding="UTF-8" standalone="no"?>
<!-- Created with Inkscape (http://www.inkscape.org/) -->

<svg
   version="1.1"
   id="svg1"
   width="218.00037mm"
   height="31.000076mm"
   viewBox="0 0 823.93838 117.16564"
   xmlns="http://www.w3.org/2000/svg"
   xmlns:svg="http://www.w3.org/2000/svg">
  <defs
     id="defs1" />
  <g
     id="g2"
     transform="matrix(11.70031,0,0,11.716557,-551.31943,-1584.1687)">
    <path
       id="path11_1_"
       class="st3"
       d="m 106.29276,137.1763 c -0.79569,0 -1.36963,0.19401 -1.72182,0.58203 -0.3522,0.38802 -0.53481,1.03068 -0.53481,1.91585 0,0.89729 0.16957,1.52783 0.52176,1.90372 0.3522,0.37589 0.92614,0.5699 1.72183,0.5699 h 1.17397 c 0.78265,0 1.34355,-0.19401 1.70879,-0.5699 0.35219,-0.38802 0.53481,-1.01855 0.53481,-1.91584 0,-0.88518 -0.16958,-1.51571 -0.52177,-1.90373 -0.35219,-0.38802 -0.92613,-0.58203 -1.70878,-0.58203 z m -44.284888,0 c -0.795693,0 -1.369636,0.19401 -1.721828,0.58203 -0.352192,0.38802 -0.53481,1.01855 -0.53481,1.90373 0,0.89729 0.169574,1.52782 0.521766,1.91584 0.352192,0.38802 0.926135,0.5699 1.721828,0.5699 h 0.887002 l -0.860914,-1.69758 h 1.734872 l 0.730472,1.4672 c 0.273928,-0.14551 0.508723,-0.40015 0.678297,-0.76392 0.169573,-0.36376 0.260883,-0.86092 0.260883,-1.49144 0,-0.88518 -0.169574,-1.51571 -0.521767,-1.90373 -0.352192,-0.38802 -0.926135,-0.58203 -1.708783,-0.58203 z m 44.284888,-1.63695 h 1.17398 c 1.29137,0 2.28273,0.33952 2.97407,1.03068 0.69134,0.69116 1.04353,1.72183 1.04353,3.09203 0,1.37019 -0.35219,2.40087 -1.04353,3.0799 -0.69134,0.67903 -1.6827,1.01855 -2.97407,1.01855 h -1.17398 c -1.29137,0 -2.29577,-0.33952 -2.9871,-1.01855 -0.69135,-0.67903 -1.03049,-1.70971 -1.03049,-3.0799 0,-1.38232 0.33914,-2.413 1.03049,-3.09203 0.70438,-0.67904 1.69573,-1.03068 2.9871,-1.03068 z m -24.757794,0 h 4.487186 v 1.62483 h -4.539365 c -0.35219,0 -0.613075,0.0727 -0.756559,0.23039 -0.15653,0.15763 -0.234795,0.35164 -0.234795,0.59415 0,0.10913 0.01304,0.21826 0.05217,0.31526 0.02609,0.097 0.09131,0.19401 0.182618,0.26677 0.09131,0.0728 0.19566,0.14551 0.339145,0.18188 0.143484,0.0486 0.339148,0.0728 0.573943,0.0728 h 2.0088 c 0.600028,0 1.095709,0.0728 1.487031,0.21826 0.391327,0.1455 0.704386,0.33952 0.939181,0.5699 0.234796,0.23039 0.391322,0.49715 0.469591,0.80029 0.09131,0.30314 0.130437,0.59415 0.130437,0.88517 0,0.35165 -0.05216,0.67903 -0.156526,0.98217 -0.104353,0.30314 -0.273927,0.55778 -0.521765,0.78817 -0.234795,0.21826 -0.534812,0.40015 -0.887002,0.5214 -0.352196,0.12126 -0.795698,0.18189 -1.30442,0.18189 h -4.91764 v -1.62484 h 4.969819 c 0.365238,0 0.639165,-0.0849 0.808739,-0.24251 0.169575,-0.15763 0.247838,-0.37589 0.247838,-0.64266 0,-0.10913 -0.01306,-0.21826 -0.05216,-0.32739 -0.03916,-0.10913 -0.104353,-0.19401 -0.182617,-0.27888 -0.09131,-0.0849 -0.208706,-0.14551 -0.365238,-0.19402 -0.156526,-0.0485 -0.365232,-0.0728 -0.613075,-0.0728 H 81.70455 c -0.600034,0 -1.082663,-0.0728 -1.473988,-0.20614 -0.37828,-0.1455 -0.678295,-0.32739 -0.900046,-0.55777 -0.221751,-0.23039 -0.37828,-0.49715 -0.456545,-0.78817 -0.09131,-0.29101 -0.130442,-0.58202 -0.130442,-0.87304 0,-0.33952 0.05218,-0.65478 0.15653,-0.95792 0.104354,-0.29102 0.273928,-0.54566 0.495678,-0.76392 0.234795,-0.21826 0.521766,-0.38801 0.887002,-0.50927 0.339148,-0.13338 0.756562,-0.19401 1.252242,-0.19401 z m -19.527094,0 h 1.173974 c 1.29137,0 2.282726,0.33952 2.974066,1.03068 0.69134,0.67903 1.043532,1.70971 1.043532,3.09203 0,0.97004 -0.169574,1.77033 -0.521766,2.40087 -0.352192,0.63052 -0.834825,1.06705 -1.460945,1.32168 l 0.821782,1.64909 h -1.734873 l -0.652208,-1.28531 c -0.03913,0.0121 -0.104353,0.0242 -0.195662,0.0242 -0.09131,0 -0.182617,0 -0.273926,0 h -1.173974 c -1.291371,0 -2.29577,-0.33952 -2.98711,-1.03068 -0.69134,-0.67903 -1.030488,-1.70971 -1.030488,-3.09203 0,-1.38232 0.339148,-2.413 1.030488,-3.09203 0.69134,-0.67903 1.695739,-1.01855 2.98711,-1.01855 z m 28.436248,-0.13338 c 0.639165,0 1.16093,0.1455 1.53921,0.43652 0.37828,0.29101 0.62612,0.69116 0.74352,1.18831 l 1.226149,4.92299 c 0.06522,0.24252 0.208705,0.36377 0.4435,0.36377 0.2348,0 0.37828,-0.10913 0.443505,-0.33952 l 1.22615,-4.95937 c 0.117395,-0.50928 0.35219,-0.89729 0.71743,-1.20043 0.36523,-0.29102 0.86091,-0.43653 1.52616,-0.43653 0.730475,0 1.29137,0.16976 1.64357,0.52141 0.365226,0.35164 0.547846,0.81241 0.547846,1.37019 v 6.47508 h -1.747916 v -6.40233 c 0,-0.12125 -0.0391,-0.21826 -0.117395,-0.27889 -0.07826,-0.0728 -0.195665,-0.10913 -0.365235,-0.10913 -0.143485,0 -0.26088,0.0242 -0.3261,0.0849 -0.07827,0.0606 -0.117405,0.13338 -0.143495,0.24252 l -1.23919,4.89874 c -0.143485,0.55778 -0.37828,0.97005 -0.71743,1.26106 -0.33915,0.29102 -0.82178,0.43653 -1.4479,0.43653 -0.639165,0 -1.134844,-0.14551 -1.487034,-0.44865 -0.35219,-0.29102 -0.586985,-0.71541 -0.71743,-1.26107 l -1.22615,-4.89874 c -0.0261,-0.10913 -0.07826,-0.19401 -0.156525,-0.24251 -0.07827,-0.0606 -0.182625,-0.0849 -0.313065,-0.0849 -0.156525,0 -0.28697,0.0364 -0.36523,0.097 -0.07827,0.0728 -0.117405,0.16976 -0.117405,0.29101 v 6.40233 h -1.747915 v -6.47507 c 0,-0.56991 0.18262,-1.01856 0.547855,-1.3702 0.33915,-0.31526 0.900045,-0.48502 1.63052,-0.48502 z m -17.361764,0 c 0.469589,0 0.873958,0.0849 1.187018,0.25463 0.313059,0.16976 0.560898,0.44865 0.717428,0.84879 l 2.92189,7.26325 H 76.01729 l -2.621875,-6.45083 c -0.06522,-0.16976 -0.182618,-0.25464 -0.326103,-0.25464 -0.143486,0 -0.247839,0.0606 -0.31306,0.19402 l -2.76536,6.51145 h -1.878357 l 3.026242,-7.27537 c 0.169574,-0.40015 0.417413,-0.67903 0.730473,-0.84879 0.326104,-0.16976 0.730472,-0.24251 1.213106,-0.24251 z m -20.818464,0 c 0.469589,0 0.873958,0.0849 1.187017,0.25463 0.313059,0.16976 0.560898,0.44865 0.717428,0.84879 l 2.92189,7.26325 h -1.891401 l -2.621875,-6.45083 c -0.06522,-0.16976 -0.182618,-0.25464 -0.326104,-0.25464 -0.143485,0 -0.247839,0.0606 -0.31306,0.19402 l -2.765359,6.51145 H 47.29407 l 3.026243,-7.27537 c 0.169574,-0.40015 0.417413,-0.67903 0.730472,-0.84879 0.339148,-0.16976 0.730473,-0.24251 1.213107,-0.24251 z"
       style="clip-rule:evenodd;display:inline;fill-rule:evenodd;stroke:#000000;stroke-width:0.348016;stroke-linecap:round;stroke-linejoin:round;stroke-miterlimit:13.3333" />
    <path
       d="m 113.31399,137.42721 v -1.85522 l -0.74352,-0.0121 0.0261,-0.23039 h 1.91749 l -0.0261,0.23039 -0.71743,0.0121 v 1.85522 z m 3.7828,0.0122 -0.18262,-1.55208 -0.79569,1.55208 h -0.30002 l -0.84786,-1.52783 -0.13045,1.52783 h -0.28697 l 0.2348,-2.10986 h 0.35219 l 0.91309,1.64908 0.84787,-1.64908 h 0.39133 l 0.24783,2.10986 z"
       id="path13-9"
       style="display:inline;stroke-width:0.125765;enable-background:new" />
  </g>
</svg>
